<svg width="412" height="917" viewBox="0 0 412 917" fill="none" xmlns="http://www.w3.org/2000/svg">
<rect width="412" height="917" fill="#49CDF8" fill-opacity="0.6"/>
<path d="M115.883 542L107.283 514H107.083C107.117 514.667 107.167 515.667 107.233 517C107.3 518.333 107.367 519.767 107.433 521.3C107.5 522.8 107.533 524.167 107.533 525.4V542H100.783V506.3H111.083L119.533 533.6H119.683L128.633 506.3H138.933V542H131.883V525.1C131.883 523.967 131.9 522.667 131.933 521.2C132 519.733 132.05 518.35 132.083 517.05C132.15 515.717 132.2 514.717 132.233 514.05H132.033L122.833 542H115.883ZM158.601 514.2C161.135 514.2 163.301 514.683 165.101 515.65C166.935 516.617 168.351 518.017 169.351 519.85C170.351 521.683 170.851 523.933 170.851 526.6V530.2H153.251C153.318 532.3 153.935 533.95 155.101 535.15C156.301 536.35 157.951 536.95 160.051 536.95C161.818 536.95 163.418 536.783 164.851 536.45C166.285 536.083 167.768 535.533 169.301 534.8V540.55C167.968 541.217 166.551 541.7 165.051 542C163.585 542.333 161.801 542.5 159.701 542.5C156.968 542.5 154.551 542 152.451 541C150.351 539.967 148.701 538.417 147.501 536.35C146.301 534.283 145.701 531.683 145.701 528.55C145.701 525.35 146.235 522.7 147.301 520.6C148.401 518.467 149.918 516.867 151.851 515.8C153.785 514.733 156.035 514.2 158.601 514.2ZM158.651 519.5C157.218 519.5 156.018 519.967 155.051 520.9C154.118 521.833 153.568 523.283 153.401 525.25H163.851C163.851 524.15 163.651 523.167 163.251 522.3C162.885 521.433 162.318 520.75 161.551 520.25C160.785 519.75 159.818 519.5 158.651 519.5ZM185.542 542.5C182.509 542.5 180.026 541.317 178.092 538.95C176.192 536.55 175.242 533.033 175.242 528.4C175.242 523.733 176.209 520.2 178.142 517.8C180.076 515.4 182.609 514.2 185.742 514.2C187.042 514.2 188.192 514.383 189.192 514.75C190.192 515.083 191.042 515.55 191.742 516.15C192.476 516.75 193.092 517.433 193.592 518.2H193.842C193.742 517.667 193.626 516.9 193.492 515.9C193.359 514.867 193.292 513.817 193.292 512.75V504H200.742V542H195.042L193.592 538.45H193.292C192.826 539.183 192.226 539.867 191.492 540.5C190.792 541.1 189.959 541.583 188.992 541.95C188.026 542.317 186.876 542.5 185.542 542.5ZM188.142 536.55C190.209 536.55 191.659 535.95 192.492 534.75C193.326 533.517 193.759 531.683 193.792 529.25V528.45C193.792 525.783 193.376 523.75 192.542 522.35C191.742 520.95 190.242 520.25 188.042 520.25C186.409 520.25 185.126 520.967 184.192 522.4C183.259 523.8 182.792 525.833 182.792 528.5C182.792 531.167 183.259 533.183 184.192 534.55C185.126 535.883 186.442 536.55 188.142 536.55ZM233.021 536.55C233.854 536.55 234.654 536.467 235.421 536.3C236.188 536.133 236.954 535.933 237.721 535.7V541.25C236.921 541.583 235.921 541.867 234.721 542.1C233.554 542.367 232.271 542.5 230.871 542.5C229.238 542.5 227.771 542.233 226.471 541.7C225.204 541.167 224.188 540.25 223.421 538.95C222.688 537.617 222.321 535.783 222.321 533.45V520.3H218.771V517.15L222.871 514.65L225.021 508.9H229.771V514.7H237.421V520.3H229.771V533.45C229.771 534.483 230.071 535.267 230.671 535.8C231.271 536.3 232.054 536.55 233.021 536.55ZM254.401 514.15C258.067 514.15 260.867 514.95 262.801 516.55C264.767 518.117 265.751 520.533 265.751 523.8V542H260.551L259.101 538.3H258.901C258.134 539.267 257.334 540.067 256.501 540.7C255.701 541.333 254.767 541.783 253.701 542.05C252.667 542.35 251.384 542.5 249.851 542.5C248.251 542.5 246.801 542.2 245.501 541.6C244.234 540.967 243.234 540.017 242.501 538.75C241.767 537.45 241.401 535.817 241.401 533.85C241.401 530.95 242.417 528.817 244.451 527.45C246.484 526.05 249.534 525.283 253.601 525.15L258.351 525V523.8C258.351 522.367 257.967 521.317 257.201 520.65C256.467 519.983 255.434 519.65 254.101 519.65C252.767 519.65 251.467 519.85 250.201 520.25C248.934 520.617 247.667 521.083 246.401 521.65L243.951 516.6C245.417 515.833 247.034 515.233 248.801 514.8C250.601 514.367 252.467 514.15 254.401 514.15ZM255.451 529.45C253.051 529.517 251.384 529.95 250.451 530.75C249.517 531.55 249.051 532.6 249.051 533.9C249.051 535.033 249.384 535.85 250.051 536.35C250.717 536.817 251.584 537.05 252.651 537.05C254.251 537.05 255.601 536.583 256.701 535.65C257.801 534.683 258.351 533.333 258.351 531.6V529.35L255.451 529.45ZM280.827 542H273.377V504H280.827V542ZM296.061 521C296.061 522.033 296.011 523.067 295.911 524.1C295.844 525.1 295.761 526.117 295.661 527.15H295.761C296.094 526.683 296.428 526.217 296.761 525.75C297.128 525.283 297.494 524.817 297.861 524.35C298.228 523.883 298.611 523.433 299.011 523L306.661 514.7H315.061L304.211 526.55L315.711 542H307.111L299.261 530.95L296.061 533.5V542H288.611V504H296.061V521Z" fill="white"/>
</svg>
