<svg width="63" height="69" viewBox="0 0 63 69" fill="none" xmlns="http://www.w3.org/2000/svg">
<path d="M31.5 56.4545C32.123 56.4545 32.732 56.2706 33.25 55.926C33.7681 55.5813 34.1718 55.0915 34.4102 54.5184C34.6486 53.9453 34.711 53.3147 34.5895 52.7063C34.4679 52.0979 34.1679 51.5391 33.7274 51.1004C33.2869 50.6618 32.7256 50.3631 32.1145 50.2421C31.5035 50.1211 30.8701 50.1832 30.2945 50.4206C29.719 50.6579 29.227 51.0599 28.8809 51.5757C28.5347 52.0915 28.35 52.6979 28.35 53.3182C28.35 54.15 28.6819 54.9477 29.2726 55.5359C29.8634 56.1241 30.6646 56.4545 31.5 56.4545ZM47.25 56.4545C47.873 56.4545 48.482 56.2706 49 55.926C49.5181 55.5813 49.9218 55.0915 50.1602 54.5184C50.3986 53.9453 50.461 53.3147 50.3395 52.7063C50.2179 52.0979 49.9179 51.5391 49.4774 51.1004C49.0369 50.6618 48.4756 50.3631 47.8645 50.2421C47.2535 50.1211 46.6201 50.1832 46.0446 50.4206C45.469 50.6579 44.977 51.0599 44.6309 51.5757C44.2847 52.0915 44.1 52.6979 44.1 53.3182C44.1 54.15 44.4319 54.9477 45.0226 55.5359C45.6134 56.1241 46.4146 56.4545 47.25 56.4545ZM47.25 43.9091C47.873 43.9091 48.482 43.7251 49 43.3805C49.5181 43.0359 49.9218 42.5461 50.1602 41.973C50.3986 41.3999 50.461 40.7692 50.3395 40.1609C50.2179 39.5525 49.9179 38.9936 49.4774 38.555C49.0369 38.1164 48.4756 37.8176 47.8645 37.6966C47.2535 37.5756 46.6201 37.6377 46.0446 37.8751C45.469 38.1125 44.977 38.5145 44.6309 39.0303C44.2847 39.546 44.1 40.1524 44.1 40.7727C44.1 41.6045 44.4319 42.4023 45.0226 42.9905C45.6134 43.5787 46.4146 43.9091 47.25 43.9091ZM31.5 43.9091C32.123 43.9091 32.732 43.7251 33.25 43.3805C33.7681 43.0359 34.1718 42.5461 34.4102 41.973C34.6486 41.3999 34.711 40.7692 34.5895 40.1609C34.4679 39.5525 34.1679 38.9936 33.7274 38.555C33.2869 38.1164 32.7256 37.8176 32.1145 37.6966C31.5035 37.5756 30.8701 37.6377 30.2945 37.8751C29.719 38.1125 29.227 38.5145 28.8809 39.0303C28.5347 39.546 28.35 40.1524 28.35 40.7727C28.35 41.6045 28.6819 42.4023 29.2726 42.9905C29.8634 43.5787 30.6646 43.9091 31.5 43.9091ZM53.55 6.27273H50.4V3.13636C50.4 2.30455 50.0681 1.5068 49.4774 0.91862C48.8867 0.330437 48.0854 0 47.25 0C46.4146 0 45.6134 0.330437 45.0226 0.91862C44.4319 1.5068 44.1 2.30455 44.1 3.13636V6.27273H18.9V3.13636C18.9 2.30455 18.5681 1.5068 17.9774 0.91862C17.3866 0.330437 16.5854 0 15.75 0C14.9146 0 14.1134 0.330437 13.5226 0.91862C12.9319 1.5068 12.6 2.30455 12.6 3.13636V6.27273H9.45C6.9437 6.27273 4.54006 7.26404 2.76784 9.02859C0.995623 10.7931 0 13.1864 0 15.6818V59.5909C0 62.0864 0.995623 64.4796 2.76784 66.2441C4.54006 68.0087 6.9437 69 9.45 69H53.55C56.0563 69 58.4599 68.0087 60.2322 66.2441C62.0044 64.4796 63 62.0864 63 59.5909V15.6818C63 13.1864 62.0044 10.7931 60.2322 9.02859C58.4599 7.26404 56.0563 6.27273 53.55 6.27273ZM56.7 59.5909C56.7 60.4227 56.3681 61.2205 55.7774 61.8087C55.1866 62.3968 54.3854 62.7273 53.55 62.7273H9.45C8.61457 62.7273 7.81335 62.3968 7.22261 61.8087C6.63187 61.2205 6.3 60.4227 6.3 59.5909V31.3636H56.7V59.5909ZM56.7 25.0909H6.3V15.6818C6.3 14.85 6.63187 14.0523 7.22261 13.4641C7.81335 12.8759 8.61457 12.5455 9.45 12.5455H12.6V15.6818C12.6 16.5136 12.9319 17.3114 13.5226 17.8996C14.1134 18.4877 14.9146 18.8182 15.75 18.8182C16.5854 18.8182 17.3866 18.4877 17.9774 17.8996C18.5681 17.3114 18.9 16.5136 18.9 15.6818V12.5455H44.1V15.6818C44.1 16.5136 44.4319 17.3114 45.0226 17.8996C45.6134 18.4877 46.4146 18.8182 47.25 18.8182C48.0854 18.8182 48.8867 18.4877 49.4774 17.8996C50.0681 17.3114 50.4 16.5136 50.4 15.6818V12.5455H53.55C54.3854 12.5455 55.1866 12.8759 55.7774 13.4641C56.3681 14.0523 56.7 14.85 56.7 15.6818V25.0909ZM15.75 43.9091C16.373 43.9091 16.982 43.7251 17.5 43.3805C18.0181 43.0359 18.4218 42.5461 18.6602 41.973C18.8986 41.3999 18.961 40.7692 18.8395 40.1609C18.7179 39.5525 18.4179 38.9936 17.9774 38.555C17.5369 38.1164 16.9756 37.8176 16.3645 37.6966C15.7535 37.5756 15.1201 37.6377 14.5445 37.8751C13.969 38.1125 13.477 38.5145 13.1309 39.0303C12.7847 39.546 12.6 40.1524 12.6 40.7727C12.6 41.6045 12.9319 42.4023 13.5226 42.9905C14.1134 43.5787 14.9146 43.9091 15.75 43.9091ZM15.75 56.4545C16.373 56.4545 16.982 56.2706 17.5 55.926C18.0181 55.5813 18.4218 55.0915 18.6602 54.5184C18.8986 53.9453 18.961 53.3147 18.8395 52.7063C18.7179 52.0979 18.4179 51.5391 17.9774 51.1004C17.5369 50.6618 16.9756 50.3631 16.3645 50.2421C15.7535 50.1211 15.1201 50.1832 14.5445 50.4206C13.969 50.6579 13.477 51.0599 13.1309 51.5757C12.7847 52.0915 12.6 52.6979 12.6 53.3182C12.6 54.15 12.9319 54.9477 13.5226 55.5359C14.1134 56.1241 14.9146 56.4545 15.75 56.4545Z" fill="#0A0C1B"/>
</svg>
