<svg width="69" height="69" viewBox="0 0 69 69" fill="none" xmlns="http://www.w3.org/2000/svg">
<path d="M49.2842 14.8204L25.152 38.9526C24.8288 39.2731 24.5724 39.6544 24.3974 40.0745C24.2223 40.4946 24.1322 40.9452 24.1322 41.4003C24.1322 41.8554 24.2223 42.306 24.3974 42.7261C24.5724 43.1463 24.8288 43.5275 25.152 43.848C25.4725 44.1712 25.8538 44.4276 26.2739 44.6026C26.694 44.7777 27.1446 44.8678 27.5997 44.8678C28.0548 44.8678 28.5054 44.7777 28.9255 44.6026C29.3456 44.4276 29.7269 44.1712 30.0474 43.848L54.1796 19.7158C54.8288 19.0666 55.1935 18.1862 55.1935 17.2681C55.1935 16.35 54.8288 15.4696 54.1796 14.8204C53.5304 14.1712 52.65 13.8065 51.7319 13.8065C50.8138 13.8065 49.9334 14.1712 49.2842 14.8204ZM63.9359 5.0641C62.3347 3.45886 60.4325 2.18527 58.3384 1.31628C56.2442 0.447301 53.9992 0 51.7319 0C49.4646 0 47.2196 0.447301 45.1254 1.31628C43.0312 2.18527 41.1291 3.45886 39.5279 5.0641L11.3621 33.4367C10.7252 34.0788 10.3662 34.9455 10.3624 35.8499V53.7422L1.01975 63.0849C0.696628 63.4053 0.440156 63.7866 0.265134 64.2067C0.0901105 64.6268 0 65.0774 0 65.5326C0 65.9877 0.0901105 66.4383 0.265134 66.8584C0.440156 67.2785 0.696628 67.6598 1.01975 67.9802C1.34024 68.3034 1.72153 68.5598 2.14164 68.7349C2.56174 68.9099 3.01234 69 3.46745 69C3.92256 69 4.37316 68.9099 4.79326 68.7349C5.21337 68.5598 5.59466 68.3034 5.91515 67.9802L15.2578 58.6376H33.1501C34.0545 58.6338 34.9212 58.2748 35.5633 57.6379L63.9359 29.4721C65.5411 27.8709 66.8147 25.9688 67.6837 23.8746C68.5527 21.7804 69 19.5354 69 17.2681C69 15.0008 68.5527 12.7558 67.6837 10.6616C66.8147 8.56746 65.5411 6.6653 63.9359 5.0641ZM59.0405 24.5767L31.7366 51.7427H17.2573V37.2634L44.4233 9.9595C46.3838 8.13262 48.977 7.13805 51.6564 7.18533C54.3357 7.2326 56.8922 8.31803 58.7871 10.2129C60.682 12.1078 61.7674 14.6643 61.8147 17.3436C61.8619 20.023 60.8674 22.6162 59.0405 24.5767Z" fill="#0A0C1B"/>
</svg>
