<svg width="63" height="69" viewBox="0 0 63 69" fill="none" xmlns="http://www.w3.org/2000/svg">
<path d="M45.5 41.4H17.5C16.5717 41.4 15.6815 41.7635 15.0251 42.4105C14.3688 43.0575 14 43.935 14 44.85C14 45.765 14.3688 46.6425 15.0251 47.2895C15.6815 47.9365 16.5717 48.3 17.5 48.3H45.5C46.4283 48.3 47.3185 47.9365 47.9749 47.2895C48.6313 46.6425 49 45.765 49 44.85C49 43.935 48.6313 43.0575 47.9749 42.4105C47.3185 41.7635 46.4283 41.4 45.5 41.4ZM45.5 27.6H24.5C23.5717 27.6 22.6815 27.9635 22.0251 28.6105C21.3688 29.2575 21 30.135 21 31.05C21 31.965 21.3688 32.8425 22.0251 33.4895C22.6815 34.1365 23.5717 34.5 24.5 34.5H45.5C46.4283 34.5 47.3185 34.1365 47.9749 33.4895C48.6313 32.8425 49 31.965 49 31.05C49 30.135 48.6313 29.2575 47.9749 28.6105C47.3185 27.9635 46.4283 27.6 45.5 27.6ZM59.5 6.9H49V3.45C49 2.535 48.6313 1.65748 47.9749 1.01048C47.3185 0.363481 46.4283 0 45.5 0C44.5717 0 43.6815 0.363481 43.0251 1.01048C42.3688 1.65748 42 2.535 42 3.45V6.9H35V3.45C35 2.535 34.6312 1.65748 33.9749 1.01048C33.3185 0.363481 32.4283 0 31.5 0C30.5717 0 29.6815 0.363481 29.0251 1.01048C28.3688 1.65748 28 2.535 28 3.45V6.9H21V3.45C21 2.535 20.6312 1.65748 19.9749 1.01048C19.3185 0.363481 18.4283 0 17.5 0C16.5717 0 15.6815 0.363481 15.0251 1.01048C14.3688 1.65748 14 2.535 14 3.45V6.9H3.5C2.57174 6.9 1.6815 7.26348 1.02513 7.91048C0.368749 8.55748 0 9.435 0 10.35V58.65C0 61.395 1.10625 64.0276 3.07538 65.9686C5.04451 67.9096 7.71523 69 10.5 69H52.5C55.2848 69 57.9555 67.9096 59.9246 65.9686C61.8938 64.0276 63 61.395 63 58.65V10.35C63 9.435 62.6313 8.55748 61.9749 7.91048C61.3185 7.26348 60.4283 6.9 59.5 6.9ZM56 58.65C56 59.565 55.6313 60.4425 54.9749 61.0895C54.3185 61.7365 53.4283 62.1 52.5 62.1H10.5C9.57174 62.1 8.6815 61.7365 8.02513 61.0895C7.36875 60.4425 7 59.565 7 58.65V13.8H14V17.25C14 18.165 14.3688 19.0425 15.0251 19.6895C15.6815 20.3365 16.5717 20.7 17.5 20.7C18.4283 20.7 19.3185 20.3365 19.9749 19.6895C20.6312 19.0425 21 18.165 21 17.25V13.8H28V17.25C28 18.165 28.3688 19.0425 29.0251 19.6895C29.6815 20.3365 30.5717 20.7 31.5 20.7C32.4283 20.7 33.3185 20.3365 33.9749 19.6895C34.6312 19.0425 35 18.165 35 17.25V13.8H42V17.25C42 18.165 42.3688 19.0425 43.0251 19.6895C43.6815 20.3365 44.5717 20.7 45.5 20.7C46.4283 20.7 47.3185 20.3365 47.9749 19.6895C48.6313 19.0425 49 18.165 49 17.25V13.8H56V58.65Z" fill="#0A0C1B"/>
</svg>
